<?xml version="1.0" encoding="UTF-8" standalone="no"?>
<!DOCTYPE svg PUBLIC "-//W3C//DTD SVG 1.1//EN" "http://www.w3.org/Graphics/SVG/1.1/DTD/svg11.dtd">
<svg width="100%" height="100%" viewBox="0 0 2578 3327" version="1.1" xmlns="http://www.w3.org/2000/svg" xmlns:xlink="http://www.w3.org/1999/xlink" xml:space="preserve" xmlns:serif="http://www.serif.com/" style="fill-rule:evenodd;clip-rule:evenodd;stroke-linejoin:round;stroke-miterlimit:2;">
    <g transform="matrix(1,0,0,1,-1211.391667,-804.165833)">
        <g transform="matrix(4.166667,0,0,4.166667,0,0)">
            <g transform="matrix(1,0,0,1,713.499,565.2528)">
                <path d="M0,339.798L-0.026,339.858L-371.198,-31.314L-422.765,-86.253L-422.765,41.847L-38.562,426.051L-38.283,425.455L-38.55,426.051L-13.364,408.746L47.263,239.065L0,339.798Z" style="fill:white;fill-rule:nonzero;"/>
            </g>
            <g transform="matrix(1,0,0,1,879.2187,312.1908)">
                <path d="M0,238.109L-5.33,250.176L-327.752,-72.246L-372.585,-119.191L-372.585,-8.64L-206.717,157.228L-293.521,305.944L-248.953,357.3L-164.326,199.618L-38.559,325.386L-38.394,325.034L-38.55,325.386L-13.365,307.877L30.047,177.099L0,238.109Z" style="fill:white;fill-rule:nonzero;"/>
            </g>
        </g>
    </g>
</svg>
